<?xml version="1.0" standalone="no"?>
<!DOCTYPE svg PUBLIC "-//W3C//DTD SVG 1.1//EN" "http://www.w3.org/Graphics/SVG/1.1/DTD/svg11.dtd">
<svg t="1634874594843" class="icon" viewBox="0 0 1024 1024" version="1.1" xmlns="http://www.w3.org/2000/svg" p-id="5759" xmlns:xlink="http://www.w3.org/1999/xlink" width="200" height="200">
	<defs>
		<style type="text/css">
		</style>
	</defs>
	<path d="M896 51.2H128C57.344 51.2 0 108.544 0 179.2v460.8c0 70.656 57.344 128 128 128h102.4v210.944L464.896 768H896c70.656 0 128-57.344 128-128V179.2c0-70.656-57.344-128-128-128z m76.8 588.8c0 42.496-34.304 76.8-76.8 76.8H445.44l-56.832 51.2L281.6 864.256V716.8H128c-42.496 0-76.8-34.304-76.8-76.8V179.2c0-42.496 34.304-76.8 76.8-76.8h768c42.496 0 76.8 34.304 76.8 76.8v460.8z" p-id="5760">
	</path>
	<path d="M256 409.6m-51.2 0a51.2 51.2 0 1 0 102.4 0 51.2 51.2 0 1 0-102.4 0Z" p-id="5761">
	</path>
	<path d="M512 409.6m-51.2 0a51.2 51.2 0 1 0 102.4 0 51.2 51.2 0 1 0-102.4 0Z" p-id="5762">
	</path>
	<path d="M768 409.6m-51.2 0a51.2 51.2 0 1 0 102.4 0 51.2 51.2 0 1 0-102.4 0Z" p-id="5763">
	</path>
</svg>
