<?xml version="1.0" standalone="no"?><!DOCTYPE svg PUBLIC "-//W3C//DTD SVG 1.1//EN" "http://www.w3.org/Graphics/SVG/1.1/DTD/svg11.dtd"><svg t="1634825850029" class="icon" viewBox="0 0 1024 1024" version="1.1" xmlns="http://www.w3.org/2000/svg" p-id="8338" xmlns:xlink="http://www.w3.org/1999/xlink" width="200" height="200"><defs><style type="text/css"></style></defs><path d="M486.3125 992c-20.4375-0.09375-36.9375-16.59375-36.84375-37.03125 0-4.875 0.9375-9.65625 2.8125-14.0625l73.03125-170.4375c1.3125-3.1875 3.1875-6.1875 5.625-8.625L822.21875 482c19.3125-19.21875 50.53125-19.21875 69.75 0l69.1875 69.375c19.125 19.21875 19.875 50.15625 1.59375 70.21875L683.46875 912.96875c-2.625 2.53125-5.71875 4.5-9.09375 5.8125L500.75 988.625c-4.5 2.15625-9.46875 3.28125-14.4375 3.375z m72.09375-165.9375l-43.40625 101.15625 103.125-41.71875-59.71875-59.4375z m28.40625-45.28125l77.15625 77.0625 177.375-184.6875-69.9375-69.75-184.59375 177.375z m222.09375-213.75l68.71875 68.34375 46.21875-48.09375-67.03125-66.5625-47.90625 46.3125z m82.03125 424.96875c-14.4375 0-26.0625-11.71875-26.0625-26.0625 0.09375-53.25-10.875-105.84375-32.25-154.59375-6.1875-13.03125-0.65625-28.59375 12.375-34.6875 13.03125-6.1875 28.5-0.65625 34.6875 12.375 0.1875 0.46875 0.46875 0.9375 0.65625 1.5 24.28125 55.3125 36.75 115.03125 36.65625 175.5 0 14.25-11.625 25.96875-26.0625 25.96875z m-816-19.21875c-14.4375 0-26.0625-11.625-26.0625-26.0625 0.1875-186.75 122.4375-351.5625 301.21875-405.84375C219.03125 468.3125 171.6875 303.21875 244.34375 172.15625 317 41.1875 482.09375-6.15625 613.0625 66.5 744.125 139.15625 791.375 304.25 718.8125 435.21875c-25.875 46.6875-64.96875 84.65625-112.3125 109.21875 15.75 5.25 31.125 11.4375 46.125 18.46875 13.125 5.90625 19.03125 21.375 13.125 34.5-5.90625 13.125-21.375 19.03125-34.5 13.125l-0.75-0.375C444.5 523.25 223.15625 603.5 136.25 789.59375 113.28125 838.71875 101.375 892.34375 101.28125 946.625c0.09375 14.4375-11.53125 26.15625-25.96875 26.15625h-0.375zM481.25 84.40625c-121.03125 0-219.09375 98.0625-219.09375 219.09375s98.0625 219.09375 219.09375 219.09375 219.09375-98.0625 219.09375-219.09375S602.28125 84.40625 481.25 84.40625z m0 0" p-id="8339" fill="#dbdbdb"></path></svg>