<?xml version="1.0" standalone="no"?><!DOCTYPE svg PUBLIC "-//W3C//DTD SVG 1.1//EN" "http://www.w3.org/Graphics/SVG/1.1/DTD/svg11.dtd"><svg t="1634826377480" class="icon" viewBox="0 0 1077 1024" version="1.1" xmlns="http://www.w3.org/2000/svg" p-id="32777" xmlns:xlink="http://www.w3.org/1999/xlink" width="210.3515625" height="200"><defs><style type="text/css"></style></defs><path d="M507.244582 472.371517c-72.916409-136.321981-139.49226-269.473684-326.5387-358.241486-114.130031-53.894737-12.681115 19.021672-12.681114 19.021672 101.448916 69.74613 149.003096 168.024768 202.897833 272.643963 72.916409 136.321981 177.535604 317.027864 326.538699 380.433436 145.832817 63.405573 76.086687 28.532508 12.681115-19.021672-60.235294-50.724458-152.173375-199.727554-202.897833-294.835913z m-196.557275 307.517028C107.789474 615.034056 117.30031 421.647059 0 9.510836 1081.065015 9.510836 830.613003 729.164087 830.613003 840.123839l183.876161 183.876161h-60.235294l-158.513932-161.684211c-88.767802 9.510836-282.154799 79.256966-485.052631-82.427244z" p-id="32778" fill="#dbdbdb"></path></svg>