<?xml version="1.0" standalone="no"?><!DOCTYPE svg PUBLIC "-//W3C//DTD SVG 1.1//EN" "http://www.w3.org/Graphics/SVG/1.1/DTD/svg11.dtd"><svg t="1634825771243" class="icon" viewBox="0 0 1171 1024" version="1.1" xmlns="http://www.w3.org/2000/svg" p-id="6663" xmlns:xlink="http://www.w3.org/1999/xlink" width="228.7109375" height="200"><defs><style type="text/css"></style></defs><path d="M48.766178 146.288568l1072.753701 0c48.757446 0 48.757446 48.754949 48.757446 48.754949l0 780.191546c0 48.764937-48.757446 48.764937-48.757446 48.764937l0-48.764937L1121.519878 292.574639 48.766178 292.574639l0 682.660425 1072.753701 0 0 48.764937L48.766178 1024c0 0-48.766185 0-48.766185-48.764937L-7.0e-06 195.043517C-7.0e-06 195.043517-7.0e-06 146.288568 48.766178 146.288568L48.766178 146.288568zM682.659169 195.043517l-195.042269 0 0 48.766185 195.042269 0L682.659169 195.043517 682.659169 195.043517zM945.606059 549.863643c0-41.339273-35.104612-74.828416-78.385194-74.828416-43.296812 0-78.385194 33.489143-78.385194 74.828416 0 41.338025 35.088383 74.834659 78.385194 74.834659C910.500199 624.698302 945.606059 591.201668 945.606059 549.863643L945.606059 549.863643zM981.759353 638.87298l-21.123441 0-84.636085 168.297146 21.280743-147.173705-31.681416-35.199493-31.673926 35.199493 21.11595 147.835373-84.478783-168.950075-21.11595 0c-42.239391 0-42.239391 22.037292-42.239391 63.354093L707.207054 828.947744l316.79169 0L1023.998744 702.235812C1023.998744 660.919011 1023.998744 638.87298 981.759353 638.87298L981.759353 638.87298zM195.042261 438.850722 633.902971 438.850722l0 48.766185L195.042261 487.616907 195.042261 438.850722 195.042261 438.850722zM195.042261 585.13929l341.339575 0 0 48.764937L195.042261 633.904227 195.042261 585.13929 195.042261 585.13929zM195.042261 731.425361l243.808454 0 0 48.766185L195.042261 780.191546 195.042261 731.425361 195.042261 731.425361zM682.659169 146.288568l-195.042269 0L487.6169 48.766185c0 0 0-48.766185 48.766185-48.766185l97.519886 0c48.757446 0 48.757446 48.766185 48.757446 48.766185L682.660417 146.288568 682.659169 146.288568zM585.136786 40.632662c-22.439287 0-40.631413 18.192127-40.631413 40.638904 0 22.440535 18.192127 40.632662 40.631413 40.632662 22.441783 0 40.641401-18.192127 40.641401-40.632662C625.778186 58.824788 607.578569 40.632662 585.136786 40.632662L585.136786 40.632662zM585.136786 40.632662" p-id="6664" fill="#dbdbdb"></path></svg>